<svg width="827" height="660" viewBox="0 0 827 660" fill="none" xmlns="http://www.w3.org/2000/svg">
<g filter="url(#filter0_d_2_3)">
<path d="M53 164C66 14 60 150 451 1H822V651H47C34.6667 639.333 9.19999 613.2 5.99999 602C1.99999 588 15 479 65 384C115 289 40 314 53 164Z" fill="white"/>
<path d="M53 164C66 14 60 150 451 1H822V651H47C34.6667 639.333 9.19999 613.2 5.99999 602C1.99999 588 15 479 65 384C115 289 40 314 53 164Z" stroke="white"/>
</g>
<defs>
<filter id="filter0_d_2_3" x="0.823669" y="0.5" width="825.676" height="659" filterUnits="userSpaceOnUse" color-interpolation-filters="sRGB">
<feFlood flood-opacity="0" result="BackgroundImageFix"/>
<feColorMatrix in="SourceAlpha" type="matrix" values="0 0 0 0 0 0 0 0 0 0 0 0 0 0 0 0 0 0 127 0" result="hardAlpha"/>
<feOffset dy="4"/>
<feGaussianBlur stdDeviation="2"/>
<feComposite in2="hardAlpha" operator="out"/>
<feColorMatrix type="matrix" values="0 0 0 0 0 0 0 0 0 0 0 0 0 0 0 0 0 0 0.25 0"/>
<feBlend mode="normal" in2="BackgroundImageFix" result="effect1_dropShadow_2_3"/>
<feBlend mode="normal" in="SourceGraphic" in2="effect1_dropShadow_2_3" result="shape"/>
</filter>
</defs>
</svg>
